<?xml version="1.0" encoding="utf-8"?>
<!-- Generator: Adobe Illustrator 23.0.1, SVG Export Plug-In . SVG Version: 6.00 Build 0)  -->
<svg version="1.1" id="Layer_1" xmlns="http://www.w3.org/2000/svg" xmlns:xlink="http://www.w3.org/1999/xlink" x="0px" y="0px"
	 viewBox="0 0 152 49.3" style="enable-background:new 0 0 152 49.3;" xml:space="preserve">
<style type="text/css">
	.st0{fill:#FFFFFF;}
	.st1{fill:none;stroke:#D9C923;stroke-width:5;stroke-miterlimit:10;}
	.st2{fill:#ED2024;}
	.st3{fill:none;stroke:#D9C923;stroke-width:4;stroke-miterlimit:10;}
	.st4{fill:#0D2E4F;}
	.st5{fill:#D9C923;}
</style>
<g>
	<path class="st0" d="M79.8,33c4.2,4.2,11,4.2,15.3,0c4.2-4.2,4.2-11,0-15.3L79.8,33z"/>
	<path class="st0" d="M99.7,11.6c-4.2-4.2-11-4.2-15.3,0c-4.2,4.2-4.2,11,0,15.3L99.7,11.6z"/>
	<path class="st0" d="M99,35.3c0,5.5,4.5,10,10,10c5.5,0,10-4.5,10-10H99z"/>
</g>
<rect x="99.1" y="14.3" class="st2" width="20" height="20"/>
<polygon class="st0" points="120.2,10.1 120.2,10.1 120.2,34.3 144.3,34.3 144.3,34.2 "/>
<polygon class="st0" points="145.6,34 145.5,34 133.2,21.7 145.5,9.4 145.6,9.5 "/>
<g>
	<path class="st0" d="M21.3,16.5c0-4.3-3-6.8-7.9-6.8H7.8v24.6h1.7V23.7h3.4C17.7,23.7,21.3,21.2,21.3,16.5 M19.5,16.6
		c0,3.7-2.5,5.5-6.5,5.5H9.5V11.3h3.8C17.3,11.3,19.5,13.1,19.5,16.6 M42.1,34.2l-8-11.1c3.2-0.6,6.1-2.9,6.1-6.7
		c0-4.1-2.9-6.6-7.7-6.6h-5.8v24.6h1.7v-11h3.8l8.2,11.2L42.1,34.2z M38.3,16.5c0,3.3-2.5,5.4-6.5,5.4h-3.5V11.3h4
		C36.2,11.3,38.3,13.3,38.3,16.5 M59.4,34.3v-1.6H48.3V22.3h8.8l-0.2-1.6h-8.6v-9.4H59V9.8H46.6v24.6H59.4z M77.3,28
		c0-3.5-2-5.4-6.4-7.3c-3.8-1.6-5.2-2.8-5.2-5.3c0-2.4,1.9-4.4,4.9-4.4c2.1,0,3.7,0.6,5.1,1.4l0.2-1.7c-1.2-0.7-3-1.2-5.3-1.2
		c-3.7,0-6.7,2.5-6.7,6c0,3.3,1.7,5,6.4,7c3.7,1.6,5.2,3.1,5.2,5.6c0,3.1-2.5,5-5.6,5c-2.5,0-4.7-0.8-6.1-1.7l-0.2,1.7
		c1.5,0.8,3.6,1.5,6.3,1.5C73.8,34.6,77.3,32.2,77.3,28"/>
</g>
</svg>
