<svg width="154" height="82" viewBox="0 0 154 82" fill="none" xmlns="http://www.w3.org/2000/svg">
<path d="M3.69531 48.3423C10.8083 55.3414 22.272 55.3414 29.385 48.308C36.498 41.2745 36.498 29.8494 29.4195 22.7816L3.69531 48.3423Z" fill="#707476"/>
<path d="M37.1174 12.6946C30.0044 5.69539 18.5407 5.69539 11.4277 12.7289C4.31468 19.7623 4.34921 31.1874 11.3932 38.2552L37.1174 12.6946Z" fill="#707476"/>
<path d="M36.0117 52.2878C36.0462 61.5171 43.5736 68.9623 52.8619 68.9623C62.1503 68.9623 69.6776 61.4828 69.7122 52.2878H36.0117Z" fill="#707476"/>
<path d="M69.8176 17.1205H36.1172V50.6067H69.8176V17.1205Z" fill="#707476"/>
<path d="M71.6817 10.087H71.5781V50.5038H112.253V50.4008L71.6817 10.087Z" fill="#707476"/>
<path d="M114.326 50.0921L114.292 50.1607L93.5742 29.5749L114.292 9.02344L114.326 9.05775V50.0921Z" fill="#707476"/>
<path d="M144.571 68.7223H142.362V72.4278C142.362 72.9424 142.293 73.3541 142.12 73.5943C141.844 73.9374 141.464 74.0746 140.877 74.0746C140.29 74.0746 139.841 73.9031 139.634 73.56C139.461 73.2512 139.427 72.9081 139.427 72.4278V68.7223H137.217V72.7022C137.217 73.7315 137.389 74.3834 137.735 74.8294C138.322 75.5842 139.427 75.996 140.842 75.996C142.396 75.996 143.536 75.4813 144.054 74.7608C144.364 74.3148 144.537 73.7315 144.537 72.6679L144.571 68.7223ZM131.658 71.8445V70.3349H132.452C132.797 70.3349 133.073 70.3349 133.349 70.4035C133.695 70.5064 133.833 70.7466 133.833 71.0211C133.833 71.2955 133.729 71.57 133.453 71.6729C133.211 71.7759 132.866 71.8102 132.521 71.8102H131.658V71.8445ZM136.595 75.8587L134.627 73.0453C135.594 72.6679 136.077 71.9131 136.077 70.9181C136.077 69.8888 135.49 69.1683 134.454 68.9282C133.971 68.7909 133.246 68.7566 132.486 68.7566H129.448V75.8587H131.658V73.4227H132.59L134.178 75.8587H136.595ZM123.681 72.8738C124.165 71.7416 124.234 71.5357 124.372 71.1926C124.476 71.5357 124.579 71.7759 125.062 72.8738H123.681ZM122.473 75.8587L123.06 74.555H125.649L126.236 75.8587H128.654L125.511 68.7566H123.302L120.159 75.8587H122.473ZM118.019 75.8587V70.6437H120.367V68.7223H113.564V70.6437H115.809V75.8587H118.019ZM106.797 75.2411C107.453 75.6872 108.696 75.996 109.835 75.996C112.39 75.996 113.254 74.8981 113.254 73.6972C113.254 72.565 112.77 71.9131 110.975 71.4328L109.87 71.1583C109.283 71.0211 109.179 70.8838 109.179 70.678C109.179 70.4378 109.352 70.3006 110.077 70.3006C111.009 70.3006 112.149 70.6094 112.805 71.124H112.839V69.1684C112.356 68.8253 111.182 68.5851 110.319 68.5851C107.936 68.5851 106.9 69.5114 106.9 70.8152C106.9 72.0504 107.556 72.6679 109.075 73.0453L110.146 73.3198C110.767 73.457 111.009 73.5257 111.009 73.8345C111.009 74.1775 110.664 74.2462 110.008 74.2462C109.11 74.2462 107.729 73.9374 106.866 73.2512H106.831L106.797 75.2411ZM103.689 72.2905C103.689 73.3541 102.895 74.1089 101.617 74.1089C100.374 74.1089 99.5109 73.4227 99.5109 72.2905C99.5109 71.1926 100.374 70.4378 101.617 70.4378C102.929 70.4378 103.689 71.1926 103.689 72.2905ZM105.968 72.2905C105.968 70.0604 104.31 68.5851 101.617 68.5851C99.0275 68.5851 97.1975 70.0947 97.1975 72.2905C97.1975 74.5206 98.9239 75.996 101.548 75.996C104.241 75.996 105.968 74.4863 105.968 72.2905ZM89.4284 75.8587C89.4284 72.565 89.4284 72.016 89.3939 70.9868C89.6701 71.6729 89.9118 72.2562 90.9477 74.555H92.467C93.4683 72.2562 93.7446 71.6043 93.9863 70.9868C93.9517 72.016 93.9517 72.4964 93.9517 75.893H96.0925V68.7909H93.1576C92.1217 71.2955 91.949 71.673 91.7419 72.2562C91.5347 71.673 91.362 71.2612 90.2916 68.7909H87.3221V75.893H89.4284V75.8587ZM83.593 68.7223H81.3831V72.4278C81.3831 72.9424 81.3141 73.3541 81.1414 73.5943C80.8652 73.9374 80.4854 74.0746 79.8984 74.0746C79.3114 74.0746 78.8625 73.9031 78.6553 73.56C78.4827 73.2512 78.4481 72.9081 78.4481 72.4278V68.7223H76.2383V72.7022C76.2383 73.7315 76.4109 74.3834 76.7562 74.8294C77.3432 75.5842 78.4481 75.996 79.8638 75.996C81.4177 75.996 82.5571 75.4813 83.0751 74.7608C83.3858 74.3148 83.5585 73.7315 83.5585 72.6679L83.593 68.7223Z" fill="#707476"/>
<path d="M149.512 64.8453V63.0268H145.921V62.0319H149.028V60.385H145.921V59.5273H149.27V57.7088H143.711V64.8453H149.512ZM140.534 64.8453V59.6302H142.882V57.7088H136.08V59.6302H138.324V64.8453H140.534ZM133.456 55.6503L132.661 56.1992L131.798 55.6503H130.313V55.6846L132.04 57.0913H133.214L134.94 55.6846V55.6503H133.456ZM129.312 64.1934C129.968 64.6394 131.211 64.9482 132.351 64.9482C134.906 64.9482 135.769 63.8503 135.769 62.6494C135.769 61.5172 135.286 60.8653 133.49 60.385L132.385 60.1105C131.798 59.9733 131.695 59.836 131.695 59.6302C131.695 59.39 131.867 59.2528 132.592 59.2528C133.525 59.2528 134.664 59.5616 135.32 60.0762H135.355V58.1206C134.871 57.7775 133.697 57.5373 132.834 57.5373C130.452 57.5373 129.416 58.4637 129.416 59.7674C129.416 61.0026 130.072 61.6201 131.591 61.9976L132.661 62.272C133.283 62.4093 133.525 62.4779 133.525 62.7867C133.525 63.1298 133.179 63.1984 132.523 63.1984C131.626 63.1984 130.244 62.8896 129.381 62.2034H129.347L129.312 64.1934ZM128.138 57.7088H125.928V64.8453H128.138V57.7088ZM125.169 64.8453V63.0612H121.681V57.7432H119.471V64.8453H125.169ZM118.09 57.7088H115.88V64.8453H118.09V57.7088ZM112.531 55.6503L111.737 56.1992L110.874 55.6503H109.389V55.6846L111.115 57.0913H112.289L114.016 55.6846V55.6503H112.531ZM114.741 64.262V62.3063H114.706C114.119 62.7524 113.083 63.0955 112.186 63.0955C110.804 63.0955 109.872 62.4779 109.872 61.2427C109.872 60.0762 110.804 59.4586 112.151 59.4586C113.014 59.4586 114.119 59.7331 114.637 60.2135H114.672V58.2235C114.188 57.8118 113.152 57.5716 112.013 57.5716C109.7 57.5716 107.559 58.8754 107.559 61.2771C107.559 63.6101 109.423 64.9825 111.944 64.9825C113.083 64.9825 114.223 64.6394 114.741 64.262ZM106.454 57.7088H104.244V61.4143C104.244 61.9289 104.175 62.3406 104.002 62.5808C103.726 62.9239 103.346 63.0612 102.759 63.0612C102.172 63.0612 101.723 62.8896 101.516 62.5465C101.343 62.2377 101.309 61.8946 101.309 61.4143V57.7088H99.0991V61.6888C99.0991 62.7181 99.2717 63.3699 99.617 63.816C100.204 64.5708 101.309 64.9825 102.725 64.9825C104.278 64.9825 105.418 64.4678 105.936 63.7473C106.247 63.3013 106.419 62.7181 106.419 61.6545L106.454 57.7088ZM98.0287 64.8453V63.0268H94.4376V62.0319H97.5453V60.385H94.4376V59.5273H97.787V57.7088H92.2278V64.8453H98.0287ZM88.2569 64.8453L91.4336 57.7432H88.913C87.739 60.8996 87.5663 61.38 87.3246 62.0319C87.1175 61.38 86.9103 60.8653 85.6327 57.7432H83.1121L86.2888 64.8453H88.2569ZM76.3789 64.1934C77.035 64.6394 78.2435 64.9482 79.4175 64.9482C81.9726 64.9482 82.8359 63.8503 82.8359 62.6494C82.8359 61.5172 82.3524 60.8653 80.5569 60.385L79.452 60.1105C78.865 59.9733 78.7269 59.836 78.7269 59.6302C78.7269 59.39 78.8995 59.2528 79.6246 59.2528C80.5569 59.2528 81.7309 59.5616 82.3524 60.0762H82.387V58.1206C81.9036 57.7775 80.7296 57.5373 79.8664 57.5373C77.4838 57.5373 76.448 58.4637 76.448 59.7674C76.448 61.0026 77.104 61.6201 78.6233 61.9976L79.6937 62.272C80.3152 62.4093 80.5569 62.4779 80.5569 62.7867C80.5569 63.1298 80.2116 63.1984 79.5556 63.1984C78.6578 63.1984 77.2767 62.8896 76.4134 62.2034H76.3789V64.1934Z" fill="#707476"/>
</svg>
